<svg id="Layer_1" data-name="Layer 1" xmlns="http://www.w3.org/2000/svg" viewBox="0 0 411.05 442.87"><defs><style>.cls-1{fill:none;stroke:#6a51a1;stroke-miterlimit:10;stroke-width:6px;}.cls-2{fill:#6a51a1;}</style></defs><rect class="cls-1" x="332.8" y="3" width="75.25" height="436.87"/><line class="cls-1" x1="332.8" y1="23.71" x2="382.29" y2="23.71"/><line class="cls-1" x1="332.8" y1="47.95" x2="366.64" y2="47.95"/><line class="cls-1" x1="332.8" y1="74.21" x2="382.29" y2="74.21"/><line class="cls-1" x1="332.8" y1="98.45" x2="366.64" y2="98.45"/><line class="cls-1" x1="332.8" y1="122.7" x2="382.29" y2="122.7"/><line class="cls-1" x1="332.8" y1="146.94" x2="366.64" y2="146.94"/><line class="cls-1" x1="332.8" y1="173.2" x2="382.29" y2="173.2"/><line class="cls-1" x1="332.8" y1="197.44" x2="366.64" y2="197.44"/><line class="cls-1" x1="332.8" y1="221.69" x2="382.29" y2="221.69"/><line class="cls-1" x1="332.8" y1="245.93" x2="366.64" y2="245.93"/><line class="cls-1" x1="332.8" y1="272.19" x2="382.29" y2="272.19"/><line class="cls-1" x1="332.8" y1="296.43" x2="366.64" y2="296.43"/><line class="cls-1" x1="332.8" y1="320.68" x2="382.29" y2="320.68"/><line class="cls-1" x1="332.8" y1="344.92" x2="366.64" y2="344.92"/><line class="cls-1" x1="332.8" y1="371.18" x2="382.29" y2="371.18"/><line class="cls-1" x1="332.8" y1="395.42" x2="366.64" y2="395.42"/><line class="cls-1" x1="332.8" y1="419.67" x2="382.29" y2="419.67"/><rect class="cls-1" x="3" y="98.45" width="223.11" height="341.41" rx="20"/><path class="cls-2" d="M337.51,449.35V222.4l-27.32-68.83L288.51,222V449.35c0,12.91,11,23.42,24.5,23.42S337.51,462.26,337.51,449.35ZM310.38,169.92l19.51,49.15-35.08,0Zm21.13,55.13V446.27h-37V225.07ZM295.14,452.27h35.73c-2.09,7.46-9.3,13-17.86,13A18.36,18.36,0,0,1,295.14,452.27Z" transform="translate(-33.56 -31.49)"/><path class="cls-1" d="M70.72,154.19s-22.93-44.68,0-48.48S90.5,130,90.5,130" transform="translate(-33.56 -31.49)"/><path class="cls-1" d="M123.51,154.19s-22.93-44.68,0-48.48S143.29,130,143.29,130" transform="translate(-33.56 -31.49)"/><path class="cls-1" d="M174.75,154.37s-22.93-44.68,0-48.49,19.78,24.25,19.78,24.25" transform="translate(-33.56 -31.49)"/><path class="cls-1" d="M223.63,154.19s-22.93-44.68,0-48.48S243.42,130,243.42,130" transform="translate(-33.56 -31.49)"/></svg>