<svg xmlns="http://www.w3.org/2000/svg" viewBox="0 0 1398.54 863.49"><defs><style>.cls-1{fill:#fff;}.cls-2,.cls-3,.cls-4{fill:none;}.cls-2,.cls-4{stroke:#fff;stroke-miterlimit:10;}.cls-2{stroke-width:6px;}.cls-4{stroke-width:7px;}</style></defs><g id="pc"><path class="cls-1" d="M1129.14,32.94H354.89a33.08,33.08,0,0,0-33,33V307.92h6V66a27.07,27.07,0,0,1,27-27h774.25a27.06,27.06,0,0,1,27,27V310.3c2.33,7.37,4.32,6.58,6-1.13V66A33.08,33.08,0,0,0,1129.14,32.94Z" transform="translate(-22.91 -32.94)"/><path class="cls-1" d="M522.92,634.29v.15l.21-.15Z" transform="translate(-22.91 -32.94)"/><path class="cls-1" d="M787.79,640.45h299.39v-6H785.92l-.26-.3-.33.3H525.82c.44,2-1.7,3.75-1.12,6H679.92a99.94,99.94,0,0,1,19.56,27.49c10.81,22.78,10,45.34-2.32,67l.09,0h0l-.09,0,0,0c-44.78,1.06-86,4-116.36,8.27-15.12,2.14-27,4.53-35.25,7.11-10.16,3.16-14.69,6.51-14.69,10.85,0,4.8,5.7,8.43,18.48,11.75,10.55,2.75,25.59,5.2,44.71,7.31,39.13,4.3,91.13,6.67,146.43,6.67s107.29-2.37,146.42-6.67C906,778.2,921,775.75,931.58,773c12.78-3.32,18.48-7,18.48-11.75,0-4.47-4.83-7.86-15.67-11-8.8-2.54-21.45-4.87-37.62-6.91-32.09-4.06-76.09-6.74-124-7.56-7.62-12.67-11.29-25.74-10.92-39.06C762.59,668.36,781.67,646.68,787.79,640.45Zm-2.26,121,4.25-4.25a120.52,120.52,0,0,1-13.07-15.33c44.84.88,86.14,3.39,116.83,7.13,45,5.49,50,11.37,50.48,12.24-.53.94-6.18,7.61-60.47,13.37-38.6,4.1-89.42,6.35-143.1,6.35s-104.51-2.25-143.11-6.35c-54.23-5.75-59.92-12.41-60.47-13.37.5-.8,5.5-6.65,47-12.33,29-3.95,67.6-6.7,109.41-7.8A118.47,118.47,0,0,1,679,758.27l4.25,4.25a117,117,0,0,0,19.14-24.58l-3-1.74h0l3,1.74c16.71-29.35,10.55-55.77,2.43-72.77a106,106,0,0,0-16.56-24.72h91.31c-8.53,9.73-23,30-23.76,56.07C755.15,719.23,765.15,741.08,785.53,761.46Z" transform="translate(-22.91 -32.94)"/><path class="cls-1" d="M524.75,546.66v-5.47h0c-.14,2-1,4-.45,6h.47Z" transform="translate(-22.91 -32.94)"/><path class="cls-1" d="M1119.12,96.05a33,33,0,0,0-33-33H398a33,33,0,0,0-33,33V305.46a5.7,5.7,0,0,0,.87,3.12c2.33,3.6,3.91,2.62,5.13-3.87V96.05a27,27,0,0,1,27-27h688.13a27,27,0,0,1,27,27V313h6Z" transform="translate(-22.91 -32.94)"/><path class="cls-1" d="M1086.54,541H525.21v6h561.33c.56,0,1.12,0,1.67-.06v-6C1087.66,541,1087.1,541,1086.54,541Z" transform="translate(-22.91 -32.94)"/><path class="cls-1" d="M742,566.46a23,23,0,1,0,23,23A23.05,23.05,0,0,0,742,566.46Zm0,40a17,17,0,1,1,17-17A17,17,0,0,1,742,606.5Z" transform="translate(-22.91 -32.94)"/><polygon class="cls-1" points="637.97 407.26 658.59 418.02 658.59 413.38 642.24 405.11 658.59 396.9 658.59 392.27 637.97 402.94 637.97 407.26"/><path class="cls-1" d="M705,436.57a40.12,40.12,0,0,0-6.47-2.21c-3.15-.87-5.17-1.72-6.06-2.57a4.67,4.67,0,0,1-1.35-3.57,5.08,5.08,0,0,1,1.84-4.06,8,8,0,0,1,5.33-1.56,7.5,7.5,0,0,1,5.35,1.78,8.22,8.22,0,0,1,2.22,5.5l4-.37a12.89,12.89,0,0,0-1.54-6,9.75,9.75,0,0,0-4-3.93,12.79,12.79,0,0,0-6.07-1.38,11,11,0,0,0-8,2.93,10.14,10.14,0,0,0-3,7.54,10,10,0,0,0,1,4.6,9.21,9.21,0,0,0,2.9,3.36,22.74,22.74,0,0,0,6.27,2.62,42.36,42.36,0,0,1,6.44,2.27,5.59,5.59,0,0,1,2.23,2.06,5.67,5.67,0,0,1,.74,2.93,5.94,5.94,0,0,1-2,4.67,8.32,8.32,0,0,1-5.71,1.79,9.82,9.82,0,0,1-4.61-1.06,7.86,7.86,0,0,1-3.15-2.81,11.36,11.36,0,0,1-1.41-4.88l-3.89.41a13.29,13.29,0,0,0,3.56,9.41,12.39,12.39,0,0,0,9.21,3.47,13.34,13.34,0,0,0,6.34-1.4A10.31,10.31,0,0,0,709.2,452a11.79,11.79,0,0,0,1.53-5.94,10,10,0,0,0-5.76-9.49Z" transform="translate(-22.91 -32.94)"/><polygon class="cls-1" points="697.64 406.47 714.87 406.47 714.87 401.98 697.64 401.98 697.64 390.38 716.03 390.38 716.03 385.89 693.52 385.89 693.52 423.88 716.76 423.88 716.76 419.39 697.64 419.39 697.64 406.47"/><path class="cls-1" d="M766.64,420.5a12.94,12.94,0,0,0-7.51-2.34,13.21,13.21,0,0,0-10.65,5.23q-4.28,5.22-4.28,14.93A22.34,22.34,0,0,0,748,451.46a13.3,13.3,0,0,0,22.15.15Q774,446.3,774,437.86a25.86,25.86,0,0,0-2-10.59A15.72,15.72,0,0,0,766.64,420.5Zm0,28.75a9.29,9.29,0,0,1-15.13,0q-3.1-3.87-3.1-10.9,0-8.14,3-12a9.32,9.32,0,0,1,7.68-3.89,8.93,8.93,0,0,1,5.35,1.78,10.75,10.75,0,0,1,3.67,4.73,23.08,23.08,0,0,1,1.58,8.77Q769.75,445.33,766.68,449.25Z" transform="translate(-22.91 -32.94)"/><polygon class="cls-1" points="765.03 424.5 768.12 424.5 777.17 385.25 774.06 385.25 765.03 424.5"/><polygon class="cls-1" points="779.49 392.27 779.49 396.9 795.84 405.11 779.49 413.38 779.49 418.02 800.11 407.26 800.11 402.94 779.49 392.27"/><g id="internet"><path class="cls-1" d="M742,104.87A129,129,0,0,0,613.2,233.68c0,71,57.79,128.81,128.81,128.81a128.81,128.81,0,1,0,0-257.62Zm3,75V111c23.12,2,43.1,27.35,53.6,63.89A236.88,236.88,0,0,1,745,179.89Zm55.17.82a216.52,216.52,0,0,1,6.29,50H745V185.89c1.45,0,2.9,0,4.38,0A239.9,239.9,0,0,0,800.19,180.71Zm-61.18-1a295,295,0,0,1-31.28-2.89c-7.73-1.12-15-2.48-21.74-3.93,10.65-35.46,30.32-59.9,53-61.89Zm-32.31,3a302,302,0,0,0,32.31,3v44.94H677.54a215.71,215.71,0,0,1,6.82-52C691.27,180.19,698.76,181.59,706.7,182.75Zm-35.15,47.92h-52.3a122.1,122.1,0,0,1,20.54-65,301.68,301.68,0,0,0,38.74,11.68A220.69,220.69,0,0,0,671.55,230.67Zm0,6a215.41,215.41,0,0,0,9.13,60.77c-19.84,2.89-34,6.12-38.79,7.26a122.13,122.13,0,0,1-22.64-68Zm6,0H739v55.7c-11.27.29-21.78,1-31.15,1.84-7.51.69-14.61,1.51-21.2,2.4A210.27,210.27,0,0,1,677.54,236.68ZM739,298.45v57.89c-20.94-1.84-39.31-22.77-50.39-53.86A498.16,498.16,0,0,1,739,298.45Zm6-.12A376,376,0,0,1,796,300.9c-11,32-29.65,53.57-50.94,55.44Zm0-6.06V236.68h61.46a211.38,211.38,0,0,1-8.64,58.41A384.74,384.74,0,0,0,745,292.27Zm67.45-55.59h52.31a122.16,122.16,0,0,1-22.36,67.62,271.35,271.35,0,0,0-38.6-8.4A216.45,216.45,0,0,0,812.47,236.68Zm0-6A221.24,221.24,0,0,0,806,179.36a187.91,187.91,0,0,0,38.1-13.83,122.07,122.07,0,0,1,20.66,65.14Zm28.13-70.12a181.65,181.65,0,0,1-36.14,13,154.69,154.69,0,0,0-12.07-30.25c-7.07-13.16-15.43-23.19-24.59-29.69A123,123,0,0,1,840.6,160.55ZM716.22,113.61c-9.16,6.5-17.52,16.53-24.58,29.69a152.71,152.71,0,0,0-11.48,28.29,300.27,300.27,0,0,1-36.8-11A123,123,0,0,1,716.22,113.61ZM645.85,310c6.31-1.43,19.38-4.18,36.76-6.66a146.29,146.29,0,0,0,9,20.76c7.06,13.16,15.42,23.18,24.58,29.69A123,123,0,0,1,645.85,310ZM767.8,353.75c9.16-6.51,17.52-16.53,24.59-29.69A148.78,148.78,0,0,0,802,301.7a267.43,267.43,0,0,1,36.63,7.73A123,123,0,0,1,767.8,353.75Z" transform="translate(-22.91 -32.94)"/></g></g><g id="mobile"><path class="cls-2" d="M1398.45,312.81H1104.59a20,20,0,0,0-20,20V851.18a20,20,0,0,0,20,20h293.86a20,20,0,0,0,20-20V332.81A20,20,0,0,0,1398.45,312.81Z" transform="translate(-22.91 -32.94)"/><rect class="cls-2" x="1082.76" y="320.1" width="293.5" height="455.1" rx="20"/><circle class="cls-2" cx="1233.36" cy="807.09" r="17.89"/><line class="cls-2" x1="1181.29" y1="301.68" x2="1273.01" y2="301.68"/><line class="cls-2" x1="1120.75" y1="365.1" x2="1212.47" y2="365.1"/><line class="cls-2" x1="1120.75" y1="397.98" x2="1173.12" y2="397.98"/><line class="cls-2" x1="1186.8" y1="397.98" x2="1278.52" y2="397.98"/></g><g id="Layer_6" data-name="Layer 6"><path class="cls-3" d="M524.75,546.66v-6c0,2.64-1.54,5.27.12,7.91C525,547.94,525.26,547.17,524.75,546.66Z" transform="translate(-22.91 -32.94)"/><path class="cls-3" d="M525.75,549.66a6.47,6.47,0,0,1-.88-1.09C524.75,549.18,524.77,549.66,525.75,549.66Z" transform="translate(-22.91 -32.94)"/><path class="cls-3" d="M589.38,310H45.91a20,20,0,0,0-20,20V873.43a20,20,0,0,0,20,20H589.38a20,20,0,0,0,20-20V330A20,20,0,0,0,589.38,310Zm-223.63,5.7h0Zm159,225v6c.51.51.24,1.28.12,1.91a6.47,6.47,0,0,0,.88,1.09c-1,0-1-.48-.88-1.09C523.21,545.93,524.75,543.3,524.75,540.66Zm0,93c0,3-1,7,1,10C523.75,640.66,524.75,636.66,524.75,633.66Zm0,7c-1-3,3-5,0-8C527.75,635.66,523.75,637.66,524.75,640.66Z" transform="translate(-22.91 -32.94)"/><path class="cls-1" d="M524.52,643.55l.23.11v-2.4a10.81,10.81,0,0,1-.23-1.8Z" transform="translate(-22.91 -32.94)"/><path class="cls-1" d="M524.52,633.73v4c.06-1.44.23-2.85.23-4.09Z" transform="translate(-22.91 -32.94)"/><path class="cls-1" d="M524.75,640.66v-2.09A3.39,3.39,0,0,0,524.75,640.66Z" transform="translate(-22.91 -32.94)"/><path class="cls-1" d="M524.52,637.75v1.71a10.81,10.81,0,0,0,.23,1.8v-.6a3.39,3.39,0,0,1,0-2.09v-4.91C524.75,634.9,524.58,636.31,524.52,637.75Z" transform="translate(-22.91 -32.94)"/><path class="cls-1" d="M525.75,549.66a6.47,6.47,0,0,1-.88-1.09C524.75,549.18,524.77,549.66,525.75,549.66Z" transform="translate(-22.91 -32.94)"/><path class="cls-1" d="M509.91,307H42.68c-10.9,0-19.77,10.32-19.77,23V873.43c0,12.68,8.87,23,19.77,23H509.91c10.9,0,19.77-10.32,19.77-23V330C529.68,317.28,520.81,307,509.91,307Zm15.84,336.7a7.08,7.08,0,0,1-1-2.4v2.4l-.23-.11V873.43c0,9.37-6.55,17-14.61,17H42.68c-8.06,0-14.61-7.63-14.61-17V330c0-9.37,6.55-17,14.61-17H509.91c8.06,0,14.61,7.63,14.61,17V542.7a10.9,10.9,0,0,0,.23-2v6c.51.51.24,1.28.12,1.91a6.47,6.47,0,0,0,.88,1.09c-1,0-1-.48-.88-1.09a5.16,5.16,0,0,1-.35-.65v85.81l.23-.07v4.91c.56-2,2.25-3.66,0-5.91,2.25,2.25.56,3.94,0,5.91v2.69A7.08,7.08,0,0,0,525.75,643.66Z" transform="translate(-22.91 -32.94)"/><path class="cls-1" d="M524.87,548.57c.12-.63,4.17-1.18,3.67-1.69,0,.35-3.79.47-3.79.78v-7a10.9,10.9,0,0,1-.23,2v5.22A5.16,5.16,0,0,0,524.87,548.57Z" transform="translate(-22.91 -32.94)"/><rect class="cls-4" x="80.06" y="662.72" width="77.04" height="151.03"/><rect class="cls-4" x="212.88" y="586.74" width="77.04" height="228.07"/><rect class="cls-4" x="353.56" y="468.97" width="77.04" height="349.05"/><polygon class="cls-1" points="55.31 386.51 77.58 397.98 77.58 394.67 58.81 385.26 58.81 385.17 77.58 375.76 77.58 372.45 55.31 383.92 55.31 386.51"/><path class="cls-1" d="M124.39,401c-1.92-1.73-4.94-2.69-9.07-2.69a48,48,0,0,0-8,.63v32h4.18V418a14.36,14.36,0,0,0,3.36.29c4.08,0,7.68-1.21,9.89-3.56a9.53,9.53,0,0,0,2.5-6.91A8.7,8.7,0,0,0,124.39,401Zm-9.45,13.87a14,14,0,0,1-3.46-.33V402a17.75,17.75,0,0,1,3.94-.33c4.61,0,7.63,2.06,7.63,6.33C123.05,412.45,120,414.89,114.94,414.89Z" transform="translate(-22.91 -32.94)"/><polygon class="cls-1" points="114.11 382.81 126.69 382.81 126.69 379.36 114.11 379.36 114.11 369.13 127.41 369.13 127.41 365.63 109.93 365.63 109.93 397.98 128.13 397.98 128.13 394.48 114.11 394.48 114.11 382.81"/><path class="cls-1" d="M170.28,415.52v-.15a8.49,8.49,0,0,0,6.1-8.25,8,8,0,0,0-2.55-6.15c-2-1.82-4.89-2.64-9.36-2.64a42.67,42.67,0,0,0-8,.68v31.92h4.17v-14h3.94c3.79.14,5.52,1.82,6.48,6.29.91,4,1.63,6.82,2.16,7.73h4.32c-.67-1.25-1.44-4.37-2.5-8.88C174.27,418.69,172.78,416.38,170.28,415.52Zm-5.38-1.78h-4.27V401.93a17.34,17.34,0,0,1,4.13-.38c4.42.05,7.44,1.87,7.44,6.05C172.2,411.29,169.37,413.74,164.9,413.74Z" transform="translate(-22.91 -32.94)"/><polygon class="cls-1" points="159.37 397.98 163.55 397.98 163.55 383.34 175.79 383.34 175.79 379.89 163.55 379.89 163.55 369.13 176.8 369.13 176.8 365.63 159.37 365.63 159.37 397.98"/><path class="cls-1" d="M218.76,398.05c-8.64,0-15,6.72-15,17,0,9.79,6,16.42,14.55,16.42,8.26,0,15-5.91,15-17C233.31,404.81,227.59,398.05,218.76,398.05Zm-.24,30c-6.58,0-10.32-6.2-10.32-13.11,0-7.1,3.46-13.49,10.37-13.49s10.32,6.72,10.32,13.16C228.89,422,225.15,428.05,218.52,428.05Z" transform="translate(-22.91 -32.94)"/><path class="cls-1" d="M252.55,415.52v-.15a8.49,8.49,0,0,0,6.1-8.25A8,8,0,0,0,256.1,401c-2-1.82-4.89-2.64-9.36-2.64a42.67,42.67,0,0,0-8,.68v31.92h4.17v-14h3.94c3.79.14,5.52,1.82,6.48,6.29.91,4,1.63,6.82,2.16,7.73h4.32c-.67-1.25-1.44-4.37-2.5-8.88C256.54,418.69,255.05,416.38,252.55,415.52Zm-5.37-1.78H242.9V401.93a17.47,17.47,0,0,1,4.13-.38c4.42.05,7.44,1.87,7.44,6.05C254.47,411.29,251.64,413.74,247.18,413.74Z" transform="translate(-22.91 -32.94)"/><path class="cls-1" d="M289.37,398.57l-5.76,15.65c-1.44,4.08-2.59,7.63-3.41,10.9h-.14c-.82-3.36-1.92-6.91-3.27-10.9l-5.52-15.65h-5.33l-2.25,32.36h4l.87-13.88c.28-4.84.52-10.27.62-14.3h.1c.91,3.84,2.2,8,3.74,12.58l5.23,15.41h3.17l5.71-15.7c1.63-4.47,3-8.5,4.08-12.29h.15c0,4,.24,9.46.48,14l.81,14.21h4.08l-2-32.36Z" transform="translate(-22.91 -32.94)"/><path class="cls-1" d="M311.21,398.57l-11,32.36h4.32l3.37-10.18h11.47l3.45,10.18h4.47l-11-32.36Zm-2.45,18.92,3.17-9.36c.62-2,1.15-3.94,1.63-5.86h.1c.48,1.87,1,3.79,1.68,5.9l3.16,9.32Z" transform="translate(-22.91 -32.94)"/><path class="cls-1" d="M352.39,412.11c0,5,.1,9,.48,13.3l-.09,0A91.45,91.45,0,0,0,347,414.94L336.6,398.57H332v32.36H336V417.1c0-5.37-.09-9.26-.33-13.34l.14-.05a105.72,105.72,0,0,0,6.05,10.8l10.27,16.42h4.23V398.57h-3.94Z" transform="translate(-22.91 -32.94)"/><path class="cls-1" d="M378.74,401.55a15.32,15.32,0,0,1,6.53,1.34l1-3.4a17.28,17.28,0,0,0-7.68-1.44c-10,0-16.9,6.86-16.9,17,0,10.61,6.87,16.37,16,16.37a20.66,20.66,0,0,0,8.54-1.54l-.86-3.31a16.65,16.65,0,0,1-6.82,1.34c-7.87,0-12.43-5.08-12.43-13C366.12,406.4,371.16,401.55,378.74,401.55Z" transform="translate(-22.91 -32.94)"/><polygon class="cls-1" points="372.73 382.81 385.31 382.81 385.31 379.36 372.73 379.36 372.73 369.13 386.03 369.13 386.03 365.63 368.55 365.63 368.55 397.98 386.75 397.98 386.75 394.48 372.73 394.48 372.73 382.81"/><polygon class="cls-1" points="398.65 399.9 401.86 399.9 415.31 365.1 412.04 365.1 398.65 399.9"/><polygon class="cls-1" points="418.33 372.45 418.33 375.76 437.24 385.17 437.24 385.26 418.33 394.67 418.33 397.98 440.6 386.56 440.6 383.87 418.33 372.45"/><polygon class="cls-1" points="1141.87 663.95 1163.68 675.18 1163.68 671.93 1145.3 662.72 1145.3 662.63 1163.68 653.42 1163.68 650.18 1141.87 661.41 1141.87 663.95"/><polygon class="cls-1" points="1189.76 656.75 1174.44 656.75 1174.44 643.5 1170.36 643.5 1170.36 675.18 1174.44 675.18 1174.44 660.33 1189.76 660.33 1189.76 675.18 1193.9 675.18 1193.9 643.5 1189.76 643.5 1189.76 656.75"/><polygon class="cls-1" points="1197.38 646.98 1207.01 646.98 1207.01 675.18 1211.15 675.18 1211.15 646.98 1220.83 646.98 1220.83 643.5 1197.38 643.5 1197.38 646.98"/><path class="cls-1" d="M1271.56,676.45l-5.64,15.32c-1.41,4-2.54,7.47-3.33,10.67h-.15c-.79-3.29-1.87-6.77-3.19-10.67l-5.41-15.32h-5.21l-2.21,31.67h3.9l.85-13.58c.28-4.75.51-10.06.61-14h.09c.89,3.76,2.16,7.84,3.67,12.31l5.12,15.08h3.1l5.59-15.36c1.6-4.37,2.92-8.32,4-12h.14c0,3.94.23,9.25.47,13.67l.8,13.91h4l-2-31.67Z" transform="translate(-22.91 -32.94)"/><polygon class="cls-1" points="1266.23 643.5 1262.14 643.5 1262.14 675.18 1279.77 675.18 1279.77 671.75 1266.23 671.75 1266.23 643.5"/><polygon class="cls-1" points="1290.67 677.06 1293.82 677.06 1306.98 642.99 1303.79 642.99 1290.67 677.06"/><polygon class="cls-1" points="1309.94 650.18 1309.94 653.42 1328.46 662.63 1328.46 662.72 1309.94 671.93 1309.94 675.18 1331.75 663.99 1331.75 661.36 1309.94 650.18"/></g></svg>