<svg id="Layer_1" data-name="Layer 1" xmlns="http://www.w3.org/2000/svg" viewBox="0 0 410.56 321.97"><defs><style>.cls-1{fill:#6a51a1;}.cls-2{font-size:46px;fill:#fff;font-family:MyriadPro-Regular, Myriad Pro;letter-spacing:0.32em;}.cls-3{letter-spacing:0.3em;}</style></defs><path class="cls-1" d="M250,89C162.4,89,91.13,161.23,91.13,250S162.4,411,250,411s158.87-72.22,158.87-161S337.6,89,250,89Zm3.7,93.77V96.69c28.52,2.54,53.16,34.18,66.12,79.85A288.18,288.18,0,0,1,253.7,182.78Zm68.06,1a274.81,274.81,0,0,1,7.76,62.45H253.7v-56c1.8,0,3.59.06,5.41.06A292.08,292.08,0,0,0,321.76,183.8Zm-75.46-1.24a360.83,360.83,0,0,1-38.59-3.6c-9.53-1.41-18.51-3.11-26.81-4.92,13.14-44.32,37.4-74.86,65.4-77.35Zm-39.85,3.8a366.38,366.38,0,0,0,39.85,3.71v56.18H170.48a272.58,272.58,0,0,1,8.41-65C187.41,183.15,196.65,184.9,206.45,186.36ZM163.1,246.25H98.58A154.1,154.1,0,0,1,123.92,165a367.84,367.84,0,0,0,47.78,14.6A278.8,278.8,0,0,0,163.1,246.25Zm0,7.5c.33,27.06,4.21,53,11.25,76-24.47,3.61-42,7.65-47.84,9.07a154,154,0,0,1-27.93-85Zm7.38,0H246.3v69.62c-13.9.36-26.87,1.22-38.42,2.3-9.27.86-18,1.89-26.16,3C174.89,306.65,170.82,281.08,170.48,253.75ZM246.3,331v72.35c-25.83-2.3-48.48-28.47-62.15-67.32A606.51,606.51,0,0,1,246.3,331Zm7.4-.16A459.08,459.08,0,0,1,316.53,334C302.94,374,280,401,253.7,403.31Zm0-7.57V253.75h75.82c-.33,26.54-4.17,51.43-10.66,73A468.29,468.29,0,0,0,253.7,323.23Zm83.2-69.48h64.52a154,154,0,0,1-27.58,84.52,330.39,330.39,0,0,0-47.6-10.51C332.9,305.3,336.58,280.05,336.9,253.75Zm0-7.5A280.49,280.49,0,0,0,329,182.11a229.94,229.94,0,0,0,47-17.28,154,154,0,0,1,25.48,81.42Zm34.7-87.65A222.4,222.4,0,0,1,327,174.85a194.18,194.18,0,0,0-14.89-37.8c-8.71-16.46-19-29-30.32-37.11A151.56,151.56,0,0,1,371.6,158.6ZM218.19,99.94c-11.3,8.13-21.61,20.65-30.32,37.11a192.79,192.79,0,0,0-14.16,35.36,370.9,370.9,0,0,1-45.39-13.7A151.56,151.56,0,0,1,218.19,99.94Zm-86.8,245.4c7.79-1.79,23.91-5.23,45.34-8.32A184.06,184.06,0,0,0,187.87,363c8.71,16.45,19,29,30.32,37.1A151.43,151.43,0,0,1,131.39,345.34Zm150.42,54.72c11.3-8.13,21.61-20.65,30.32-37.1A186.37,186.37,0,0,0,324,335a325.91,325.91,0,0,1,45.18,9.67A151.41,151.41,0,0,1,281.81,400.06Z" transform="translate(-44.72 -89.01)"/><rect class="cls-1" y="126.37" width="410.56" height="69.23"/><text class="cls-2" transform="translate(125.47 174.49)">WW<tspan class="cls-3" x="106.9" y="0">W</tspan></text></svg>