<svg id="Layer_1" data-name="Layer 1" xmlns="http://www.w3.org/2000/svg" viewBox="0 0 101.92 116.07"><defs><style>.cls-1{fill:none;stroke:#fff;stroke-miterlimit:10;stroke-width:8px;}.cls-2{fill:#fff;}</style></defs><path class="cls-1" d="M30.8,60.4c-5.3,5.06-9.47,8.86-12.75,11.69-4.3,3.71-12,1.24-12-3.84V15.41C6.06,5.94,20.22,1.2,28.5,7.89l58.12,47" transform="translate(-2.06 -0.76)"/><path class="cls-1" d="M75.25,19.46S84.72,10.6,88,7.77c4.29-3.71,12-1.24,12,3.84V64.45c0,9.47-14.16,14.21-22.44,7.52L19.43,25" transform="translate(-2.06 -0.76)"/><polygon class="cls-2" points="17.23 109.36 4.75 92.58 4.68 92.58 4.68 112.16 5.78 112.16 5.76 95.98 18.23 112.62 18.28 112.62 18.28 92.99 17.21 92.99 17.23 109.36"/><polygon class="cls-2" points="31.24 103.14 39.22 103.14 39.22 101.87 31.24 101.87 31.24 94.26 40.11 94.26 40.11 92.99 30.12 92.99 30.12 112.16 40.43 112.16 40.43 110.89 31.24 110.89 31.24 103.14"/><path class="cls-2" d="M54.7,110A6.69,6.69,0,0,1,53.61,114a3.6,3.6,0,0,1-2.72,1.53v1.27a4.42,4.42,0,0,0,2.49-.85,5.41,5.41,0,0,0,1.77-2.31,9,9,0,0,0,.66-3.64V93.75H54.7Z" transform="translate(-2.06 -0.76)"/><path class="cls-2" d="M73,92.91l-6.85,20h1.12l2.15-6.35h7.15l2.11,6.35H79.9l-6.84-20Zm-3.16,12.42L73,95.92l3.13,9.41Z" transform="translate(-2.06 -0.76)"/><polygon class="cls-2" points="85.75 92.99 85.75 94.26 90.47 94.26 90.47 112.16 91.59 112.16 91.59 94.26 96.36 94.26 96.36 92.99 85.75 92.99"/></svg>