<svg id="Layer_1" data-name="Layer 1" xmlns="http://www.w3.org/2000/svg" viewBox="0 0 366.13 293.37"><defs><style>.cls-1{fill:#6a51a1;}</style></defs><path class="cls-1" d="M410.07,103.31H90a22.69,22.69,0,0,0-10.08,2.33h0A22.85,22.85,0,0,0,67,126.31V247h0v6h0v67h0v6h0v47.7a23,23,0,0,0,23,23H410.07a23,23,0,0,0,23-23V126.31A23,23,0,0,0,410.07,103.31Zm17,23v49.23H326.49V109.31h83.58A17,17,0,0,1,427.07,126.31ZM326.41,320V253H427.07v67Zm-76.9,6v64.7H148.62V326Zm-66-6V253H320.41v67Zm63.58-138.45V247H146.19V181.54Zm109.78,0V247H253.08V181.54Zm6,65.46V181.54h64.21V247Zm-43.4-137.69h1v66.23H183.57V109.31H319.46ZM82.52,111l-1.32-2.7,1.32,2.7A16.75,16.75,0,0,1,90,109.31h87.61v66.23H73V126.31A16.88,16.88,0,0,1,82.52,111ZM73,181.54h67.23V247H73ZM73,253H177.5v67H73Zm0,120.69V326h69.66v64.7H90A17,17,0,0,1,73,373.69Zm337.11,17H255.51V326H359.29v64.46h6V326h61.78v47.7A17,17,0,0,1,410.07,390.69Z" transform="translate(-66.93 -103.31)"/></svg>